<?xml version="1.0" encoding="utf-8"?>
<!-- Generator: Adobe Illustrator 22.1.0, SVG Export Plug-In . SVG Version: 6.00 Build 0)  -->
<svg version="1.1" id="Capa_1" xmlns="http://www.w3.org/2000/svg" xmlns:xlink="http://www.w3.org/1999/xlink" x="0px" y="0px"
	 viewBox="0 0 59 59" style="enable-background:new 0 0 59 59;" xml:space="preserve">
	 <style>
	 g, path{
	 	fill:#1FA2FF;
	 }
	 </style>
<g>
	<path d="M52,34.5V15V5c0-0.6-0.4-1-1-1h-5V1c0-0.6-0.4-1-1-1h-7c-0.6,0-1,0.4-1,1v3H15V1c0-0.6-0.4-1-1-1H7C6.4,0,6,0.4,6,1v3H1
		C0.4,4,0,4.4,0,5v10v41c0,0.6,0.4,1,1,1h38.1c2,1.3,4.4,2,6.9,2c7.2,0,13-5.8,13-13C59,41,56.2,36.7,52,34.5z M39,2h5v3v3h-5V5V2z
		 M8,2h5v3v3H8V5V2z M2,6h4v3c0,0.6,0.4,1,1,1h7c0.6,0,1-0.4,1-1V6h22v3c0,0.6,0.4,1,1,1h7c0.6,0,1-0.4,1-1V6h4v8H2V6z M2,55V16h48
		v17.6c-0.2-0.1-0.4-0.1-0.6-0.2c-0.2-0.1-0.4-0.1-0.6-0.1c-0.2,0-0.3-0.1-0.5-0.1c-0.2,0-0.5-0.1-0.7-0.1c-0.1,0-0.3,0-0.4,0
		C46.8,33,46.4,33,46,33c-0.3,0-0.7,0-1,0.1V32v-2v-9h-9h-2h-7h-2h-7h-2H7v9v2v7v2v9h9h2h7h2h6.6c0,0.1,0.1,0.2,0.1,0.3
		c0.1,0.2,0.2,0.5,0.3,0.7c0.1,0.1,0.1,0.3,0.2,0.4c0.1,0.3,0.2,0.5,0.4,0.8c0.1,0.1,0.1,0.2,0.2,0.3c0.1,0.3,0.3,0.5,0.5,0.8
		c0.1,0.1,0.1,0.2,0.2,0.3c0.2,0.3,0.4,0.5,0.6,0.7c0.1,0.1,0.2,0.2,0.2,0.3c0.2,0.2,0.3,0.4,0.5,0.5L2,55L2,55z M40.3,34.3
		c-0.1,0.1-0.2,0.1-0.3,0.2c-0.2,0.1-0.4,0.2-0.6,0.3c-0.2,0.1-0.3,0.2-0.5,0.3c-0.2,0.1-0.3,0.2-0.5,0.3c-0.2,0.1-0.3,0.3-0.5,0.4
		c-0.1,0.1-0.3,0.2-0.4,0.3c-0.2,0.1-0.3,0.3-0.5,0.5c-0.1,0.1-0.2,0.2-0.3,0.3c-0.2,0.2-0.4,0.4-0.5,0.6c-0.1,0.1-0.2,0.2-0.2,0.2
		V32h7v1.4c0,0,0,0,0,0C42,33.6,41.1,33.9,40.3,34.3z M33.6,42.2c0,0.1-0.1,0.2-0.1,0.3c-0.1,0.3-0.2,0.6-0.2,0.9
		c0,0.2-0.1,0.5-0.1,0.7c0,0.2-0.1,0.4-0.1,0.6c0,0.4-0.1,0.9-0.1,1.3c0,0.4,0,0.7,0.1,1.1c0,0.1,0,0.1,0,0.2c0,0.2,0,0.3,0.1,0.5v0
		c0,0.1,0,0.2,0,0.2H27v-7h7v0c0,0,0,0,0,0.1C33.8,41.4,33.7,41.8,33.6,42.2z M9,41h7v7H9V41z M9,32h7v7H9V32z M43,30h-7v-7h7V30z
		 M34,30h-7v-7h7V30z M34,39h-7v-7h7V39z M18,32h7v7h-7V32z M25,30h-7v-7h7V30z M16,30H9v-7h7V30z M18,41h7v7h-7V41z M46,57
		c-2.3,0-4.4-0.7-6.1-1.9c-0.3-0.2-0.7-0.5-1-0.7c-0.1-0.1-0.2-0.2-0.3-0.3c-0.2-0.2-0.4-0.4-0.6-0.6c-0.1-0.1-0.2-0.2-0.3-0.4
		c-0.2-0.2-0.3-0.4-0.5-0.6c-0.1-0.1-0.2-0.3-0.3-0.4c-0.2-0.3-0.4-0.7-0.6-1c0-0.1-0.1-0.2-0.1-0.2c-0.1-0.3-0.3-0.6-0.4-0.9
		c-0.1-0.1-0.1-0.3-0.1-0.4c-0.1-0.3-0.2-0.5-0.3-0.8c0-0.1,0-0.1,0-0.2c-0.1-0.4-0.2-0.9-0.3-1.3c0,0,0-0.1,0-0.1
		C35,46.9,35,46.4,35,46c0-0.4,0-0.8,0.1-1.1c0,0,0-0.1,0-0.1c0-0.3,0.1-0.7,0.2-1c0,0,0-0.1,0-0.1c0.1-0.3,0.2-0.7,0.3-1
		c0,0,0-0.1,0-0.1c0.1-0.3,0.2-0.6,0.3-0.9c0.1-0.3,0.3-0.6,0.4-0.8l0.1-0.2c0-0.1,0.1-0.1,0.1-0.2c0.2-0.3,0.4-0.6,0.6-0.9
		c0-0.1,0.1-0.1,0.2-0.2c0.2-0.2,0.4-0.5,0.6-0.7c0.1-0.1,0.1-0.2,0.2-0.2c0.2-0.2,0.4-0.4,0.6-0.6c0.1-0.1,0.1-0.1,0.2-0.2
		c0.2-0.2,0.5-0.4,0.8-0.6c0,0,0.1-0.1,0.1-0.1c1.3-0.9,2.8-1.5,4.4-1.8l0,0c0.6-0.1,1.2-0.2,1.8-0.2c0.4,0,0.8,0,1.2,0.1
		c0.1,0,0.1,0,0.2,0c0.3,0,0.7,0.1,1,0.2c0,0,0.1,0,0.1,0c0.3,0.1,0.7,0.2,1,0.3c0,0,0,0,0.1,0c0.3,0.1,0.7,0.3,1,0.4
		c3.8,1.7,6.5,5.6,6.5,10C57,52.1,52.1,57,46,57z"/>
	<path d="M39.7,51.5L39.7,51.5c-0.5-0.5-0.4-1.4,0.2-1.8l10.9-9c0.5-0.5,1.4-0.4,1.8,0.2v0c0.5,0.5,0.4,1.4-0.2,1.8l-10.9,9
		C41,52.2,40.1,52.1,39.7,51.5z"/>
	<path d="M39.5,40.8L39.5,40.8c0.5-0.5,1.3-0.6,1.8-0.2l10.8,9.1c0.5,0.5,0.6,1.3,0.2,1.8l0,0c-0.5,0.5-1.3,0.6-1.8,0.2l-10.8-9.1
		C39.1,42.2,39,41.3,39.5,40.8z"/>
</g>
</svg>
