<?xml version="1.0" encoding="utf-8"?>
<!-- Generator: Adobe Illustrator 22.1.0, SVG Export Plug-In . SVG Version: 6.00 Build 0)  -->
<svg version="1.1" id="Capa_1" xmlns="http://www.w3.org/2000/svg" xmlns:xlink="http://www.w3.org/1999/xlink" x="0px" y="0px"
	 viewBox="0 0 512 512" style="enable-background:new 0 0 512 512;" xml:space="preserve">
	 <style>
	 g, path{
	 	fill:#1FA2FF;
	 }
	 </style>
<g>
	<g>
		<path d="M491.4,7.8H374.2c-8.1,0-14.6,6.5-14.6,14.4s6.6,14.4,14.6,14.4h102.5v166.9c0,8,6.6,14.4,14.6,14.4s14.6-6.5,14.6-14.4
			V22.2C506,14.3,499.4,7.8,491.4,7.8z"/>
	</g>
</g>
<g>
	<g>
		<path d="M137.8,8.1H20.6C12.6,8.1,6,14.5,6,22.4v181.3c0,7.9,6.6,14.4,14.6,14.4s14.6-6.4,14.6-14.4V36.8h102.5
			c8.1,0,14.6-6.4,14.6-14.4S145.9,8.1,137.8,8.1z"/>
	</g>
</g>
<g>
	<g>
		<path d="M491.4,296.3c-8.1,0-14.6,6.6-14.6,14.7v166H374.2c-8.1,0-14.6,6.6-14.6,14.7s6.6,14.7,14.6,14.7h117.2
			c8.1,0,14.6-6.6,14.6-14.7V311C506,302.9,499.4,296.3,491.4,296.3z"/>
	</g>
</g>
<g>
	<g>
		<path d="M137.8,477H35.3V311c0-8.1-6.6-14.7-14.6-14.7S6,302.9,6,311v180.7c0,8.1,6.6,14.7,14.6,14.7h117.2
			c8.1,0,14.6-6.6,14.6-14.7S145.9,477,137.8,477z"/>
	</g>
</g>
<path d="M499.7,278.5H13c-2.8,0-5-2.3-5-5v-31c0-2.8,2.3-5,5-5h486.7c2.8,0,5,2.3,5,5v31C504.7,276.2,502.4,278.5,499.7,278.5z"/>
</svg>
